<svg width="1440" height="900" viewBox="0 0 1440 900" fill="none" xmlns="http://www.w3.org/2000/svg" role="img" aria-labelledby="title desc">
  <title id="title">Remux hero image</title>
  <desc id="desc">An abstract illustration of Remux as a remote workspace cockpit with Inspect, Live, and Control surfaces.</desc>
  <defs>
    <linearGradient id="bg" x1="84" y1="72" x2="1330" y2="828" gradientUnits="userSpaceOnUse">
      <stop stop-color="#0B1220"/>
      <stop offset="0.52" stop-color="#10233A"/>
      <stop offset="1" stop-color="#101827"/>
    </linearGradient>
    <linearGradient id="panel" x1="779" y1="126" x2="1289" y2="712" gradientUnits="userSpaceOnUse">
      <stop stop-color="#0F172A"/>
      <stop offset="1" stop-color="#111C2F"/>
    </linearGradient>
    <linearGradient id="inspectCard" x1="0" y1="0" x2="560" y2="0" gradientUnits="userSpaceOnUse">
      <stop stop-color="#0F766E"/>
      <stop offset="1" stop-color="#0EA5A4"/>
    </linearGradient>
    <linearGradient id="liveCard" x1="0" y1="0" x2="560" y2="0" gradientUnits="userSpaceOnUse">
      <stop stop-color="#9A3412"/>
      <stop offset="1" stop-color="#F97316"/>
    </linearGradient>
    <linearGradient id="controlCard" x1="0" y1="0" x2="240" y2="0" gradientUnits="userSpaceOnUse">
      <stop stop-color="#1D4ED8"/>
      <stop offset="1" stop-color="#60A5FA"/>
    </linearGradient>
    <filter id="softGlow" x="-40%" y="-40%" width="180%" height="180%">
      <feGaussianBlur stdDeviation="30" result="blur"/>
      <feMerge>
        <feMergeNode in="blur"/>
        <feMergeNode in="SourceGraphic"/>
      </feMerge>
    </filter>
  </defs>

  <rect width="1440" height="900" rx="40" fill="url(#bg)"/>
  <g opacity="0.15">
    <path d="M90 160H1350" stroke="#7DD3FC"/>
    <path d="M90 310H1350" stroke="#7DD3FC"/>
    <path d="M90 460H1350" stroke="#7DD3FC"/>
    <path d="M90 610H1350" stroke="#7DD3FC"/>
    <path d="M90 760H1350" stroke="#7DD3FC"/>
    <path d="M230 70V830" stroke="#7DD3FC"/>
    <path d="M420 70V830" stroke="#7DD3FC"/>
    <path d="M610 70V830" stroke="#7DD3FC"/>
    <path d="M800 70V830" stroke="#7DD3FC"/>
    <path d="M990 70V830" stroke="#7DD3FC"/>
    <path d="M1180 70V830" stroke="#7DD3FC"/>
  </g>

  <circle cx="170" cy="152" r="82" fill="#0EA5A4" opacity="0.25" filter="url(#softGlow)"/>
  <circle cx="1228" cy="126" r="102" fill="#F97316" opacity="0.22" filter="url(#softGlow)"/>
  <circle cx="1184" cy="768" r="132" fill="#60A5FA" opacity="0.18" filter="url(#softGlow)"/>

  <g transform="translate(112 136)">
    <rect x="0" y="0" width="294" height="36" rx="18" fill="#13233B" stroke="#28506C"/>
    <text x="22" y="24" fill="#A5F3FC" font-size="18" font-weight="600" font-family="'SF Pro Display', 'Segoe UI', sans-serif">Remote workspace cockpit</text>

    <text x="0" y="128" fill="#F8FAFC" font-size="92" font-weight="700" font-family="'SF Pro Display', 'Segoe UI', sans-serif">Remux</text>
    <text x="0" y="190" fill="#D6E4F2" font-size="34" font-weight="500" font-family="'SF Pro Display', 'Segoe UI', sans-serif">Monitor, inspect, and control</text>
    <text x="0" y="232" fill="#D6E4F2" font-size="34" font-weight="500" font-family="'SF Pro Display', 'Segoe UI', sans-serif">terminal work from anywhere.</text>

    <text x="0" y="300" fill="#93C5FD" font-size="20" font-weight="600" font-family="'SF Pro Display', 'Segoe UI', sans-serif">Built for the real remote workflow:</text>

    <g transform="translate(0 340)">
      <rect x="0" y="0" width="132" height="44" rx="22" fill="#134E4A"/>
      <text x="28" y="28" fill="#CCFBF1" font-size="22" font-weight="700" font-family="'SF Pro Display', 'Segoe UI', sans-serif">Inspect</text>
      <text x="154" y="29" fill="#D6E4F2" font-size="24" font-weight="500" font-family="'SF Pro Display', 'Segoe UI', sans-serif">Catch up on the current tab</text>
    </g>
    <g transform="translate(0 408)">
      <rect x="0" y="0" width="94" height="44" rx="22" fill="#7C2D12"/>
      <text x="28" y="28" fill="#FED7AA" font-size="22" font-weight="700" font-family="'SF Pro Display', 'Segoe UI', sans-serif">Live</text>
      <text x="116" y="29" fill="#D6E4F2" font-size="24" font-weight="500" font-family="'SF Pro Display', 'Segoe UI', sans-serif">Intervene when it matters</text>
    </g>
    <g transform="translate(0 476)">
      <rect x="0" y="0" width="134" height="44" rx="22" fill="#1E3A8A"/>
      <text x="26" y="28" fill="#DBEAFE" font-size="22" font-weight="700" font-family="'SF Pro Display', 'Segoe UI', sans-serif">Control</text>
      <text x="156" y="29" fill="#D6E4F2" font-size="24" font-weight="500" font-family="'SF Pro Display', 'Segoe UI', sans-serif">Navigate with structure</text>
    </g>

    <text x="0" y="620" fill="#94A3B8" font-size="21" font-weight="500" font-family="'SF Pro Display', 'Segoe UI', sans-serif">zellij-backed. inspect readable. live reliable.</text>
  </g>

  <g transform="translate(778 118)">
    <rect x="0" y="0" width="552" height="664" rx="34" fill="url(#panel)" stroke="#27435F"/>
    <rect x="20" y="20" width="512" height="624" rx="24" fill="#0B1220" stroke="#1C3149"/>

    <g transform="translate(40 42)">
      <rect x="0" y="0" width="154" height="560" rx="24" fill="#0A1423" stroke="#1E3A5F"/>
      <rect x="18" y="22" width="118" height="34" rx="17" fill="url(#controlCard)"/>
      <text x="43" y="44" fill="#EFF6FF" font-size="20" font-weight="700" font-family="'SF Pro Display', 'Segoe UI', sans-serif">Control</text>

      <rect x="18" y="86" width="118" height="54" rx="14" fill="#0F1F37" stroke="#27435F"/>
      <rect x="30" y="98" width="72" height="12" rx="6" fill="#BFDBFE"/>
      <rect x="30" y="118" width="88" height="10" rx="5" fill="#45698B"/>

      <rect x="18" y="156" width="118" height="54" rx="14" fill="#0F1F37" stroke="#27435F"/>
      <rect x="30" y="168" width="60" height="12" rx="6" fill="#BFDBFE"/>
      <rect x="30" y="188" width="82" height="10" rx="5" fill="#45698B"/>

      <rect x="18" y="226" width="118" height="54" rx="14" fill="#0F1F37" stroke="#27435F"/>
      <rect x="30" y="238" width="74" height="12" rx="6" fill="#BFDBFE"/>
      <rect x="30" y="258" width="68" height="10" rx="5" fill="#45698B"/>

      <rect x="18" y="314" width="118" height="80" rx="18" fill="#12253E"/>
      <rect x="30" y="330" width="56" height="10" rx="5" fill="#60A5FA"/>
      <rect x="30" y="350" width="78" height="10" rx="5" fill="#2DD4BF"/>
      <rect x="30" y="370" width="62" height="10" rx="5" fill="#F59E0B"/>
    </g>

    <g transform="translate(220 42)">
      <rect x="0" y="0" width="272" height="324" rx="24" fill="#0A1423" stroke="#155E75"/>
      <rect x="18" y="18" width="236" height="46" rx="18" fill="url(#inspectCard)"/>
      <text x="92" y="47" fill="#ECFEFF" font-size="22" font-weight="700" font-family="'SF Pro Display', 'Segoe UI', sans-serif">Inspect</text>
      <text x="28" y="96" fill="#B6F3EC" font-size="16" font-weight="600" font-family="'SF Pro Display', 'Segoe UI', sans-serif">Current tab history</text>
      <rect x="28" y="118" width="216" height="164" rx="18" fill="#0E2231"/>
      <rect x="42" y="138" width="88" height="12" rx="6" fill="#2DD4BF"/>
      <rect x="42" y="164" width="184" height="10" rx="5" fill="#89B8C6"/>
      <rect x="42" y="188" width="164" height="10" rx="5" fill="#89B8C6"/>
      <rect x="42" y="212" width="174" height="10" rx="5" fill="#89B8C6"/>
      <rect x="42" y="236" width="142" height="10" rx="5" fill="#89B8C6"/>
      <rect x="42" y="260" width="128" height="10" rx="5" fill="#89B8C6"/>
      <rect x="28" y="292" width="86" height="14" rx="7" fill="#0F766E"/>
      <rect x="122" y="292" width="96" height="14" rx="7" fill="#155E75"/>
    </g>

    <g transform="translate(220 390)">
      <rect x="0" y="0" width="272" height="212" rx="24" fill="#0A1423" stroke="#9A3412"/>
      <rect x="18" y="18" width="236" height="46" rx="18" fill="url(#liveCard)"/>
      <text x="112" y="47" fill="#FFF7ED" font-size="22" font-weight="700" font-family="'SF Pro Display', 'Segoe UI', sans-serif">Live</text>
      <rect x="28" y="90" width="216" height="88" rx="18" fill="#131923"/>
      <text x="42" y="122" fill="#FDBA74" font-size="16" font-weight="600" font-family="'SFMono-Regular', Menlo, monospace">$ deploy --watch</text>
      <text x="42" y="146" fill="#FDE68A" font-size="16" font-weight="600" font-family="'SFMono-Regular', Menlo, monospace">build complete</text>
      <text x="42" y="170" fill="#86EFAC" font-size="16" font-weight="600" font-family="'SFMono-Regular', Menlo, monospace">service healthy</text>
    </g>
  </g>
</svg>
